<svg xmlns="http://www.w3.org/2000/svg" viewBox="0 0 410 404" fill="none">
  <path d="M399.641 59.524L215.643 388.545C211.85 395.316 202.126 395.322 198.326 388.555L10.177 59.557C5.997 52.244 12.247 43.203 20.504 44.43L204.696 71.816C205.869 71.991 207.061 71.991 208.234 71.816L389.287 44.448C397.53 43.202 403.786 52.2 399.641 59.524Z" fill="#41D1FF"/>
  <path d="M292.965 1.574L156.44 28.336C154.195 28.776 152.556 30.735 152.497 33.023L144.098 202.53C144.001 206.274 147.435 209.165 151.116 208.426L189.113 200.793C192.667 200.079 195.879 203.183 194.994 206.699L183.706 251.502C182.818 255.029 186.056 258.141 189.621 257.395L213.094 252.483C216.661 251.737 219.901 254.853 219.007 258.381L201.042 329.393C199.918 333.838 205.833 336.262 208.086 332.266L209.591 329.598L320.839 107.642C322.702 103.929 319.494 99.76 315.408 100.545L276.292 108.053C272.616 108.759 269.49 105.317 270.737 101.788L296.267 29.611C297.515 26.083 294.802 22.653 291.159 23.364Z" fill="#BD34FE"/>
  <path d="M270.737 101.788L296.267 29.611C297.515 26.083 294.802 22.653 291.159 23.364L257.743 29.913L236.293 245.109L213.094 252.483C209.527 253.229 206.287 250.112 207.181 246.585L218.469 201.782C219.354 198.266 216.142 195.162 212.588 195.876L174.591 203.509C170.91 204.248 167.476 201.357 167.573 197.613L175.972 28.106C176.03 25.818 177.669 23.859 179.914 23.419L156.44 28.336C154.195 28.776 152.556 30.735 152.497 33.023L144.098 202.53C144.001 206.274 147.435 209.165 151.116 208.426L189.113 200.793C192.667 200.079 195.879 203.183 194.994 206.699L183.706 251.502C182.818 255.029 186.056 258.141 189.621 257.395L213.094 252.483L236.293 245.109L270.737 101.788Z" fill="#FFEA83"/>
</svg>
